<svg xmlns="http://www.w3.org/2000/svg" width="20" height="12" viewBox="0 0 20 12">
  <defs>
    <style>
      .cls-1 {
        fill: #fff;
        fill-rule: evenodd;
      }
    </style>
  </defs>
  <path id="Фигура_1" data-name="Фигура 1" class="cls-1" d="M1523.95,6381.99h-2.19a0.6,0.6,0,0,0-.75.63c0,0.58.74,3.49,3.45,7.34a8.533,8.533,0,0,0,6.67,4.05c1.39,0,1.57-.32,1.57-0.86v-1.99c0-.63.13-0.76,0.57-0.76,0.32,0,.88.17,2.18,1.43,1.48,1.51,1.73,2.18,2.56,2.18h2.19a0.671,0.671,0,0,0,.76-0.94,9.634,9.634,0,0,0-1.85-2.59c-0.51-.61-1.27-1.27-1.51-1.6a0.685,0.685,0,0,1,0-.98s2.67-3.8,2.95-5.09c0.14-.47,0-0.81-0.66-0.81h-2.19a0.934,0.934,0,0,0-.95.62,18.967,18.967,0,0,1-2.69,4.53,1.611,1.611,0,0,1-1.02.68c-0.14,0-.34-0.17-0.34-0.64v-4.38c0-.56-0.16-0.81-0.63-0.81l-3.43-.01a0.537,0.537,0,0,0-.56.51c0,0.54.79,0.66,0.87,2.16v3.26c0,0.71-.13.84-0.41,0.84-0.74,0-2.54-2.75-3.61-5.91A0.947,0.947,0,0,0,1523.95,6381.99Z" transform="translate(-1521 -6382)"/>
</svg>
